<?xml version="1.0" encoding="UTF-8" standalone="no"?>
<!DOCTYPE svg PUBLIC "-//W3C//DTD SVG 1.1//EN" "http://www.w3.org/Graphics/SVG/1.1/DTD/svg11.dtd">

<svg xmlns="http://www.w3.org/2000/svg" xmlns:xlink="http://www.w3.org/1999/xlink" width="131px" height="36px" viewBox="0 0 131 36" version="1.1">
                    <defs>
                        <polygon id="path-1" points="0 70 167 70 167 0 0 0"></polygon>
                    </defs>
                    <g id="Page-1" stroke="none" stroke-width="1" fill="none" fill-rule="evenodd">
                        <g id="Main" transform="translate(-66.000000, -17.000000)">
                            <g id="menu">
                                <g id="Stacked-Group" transform="translate(48.000000, 0.000000)">
                                    <g id="predica_logo">
                                        <path d="M132.873083,34.9998656 C132.873083,32.1997759 131.354716,30.4001793 128.685115,30.4001793 C126.015515,30.4001793 124.392413,32.1997759 124.392413,34.9998656 C124.392413,37.8002241 126.015515,39.5995519 128.685115,39.5995519 C131.354716,39.5995519 132.873083,37.8002241 132.873083,34.9998656 M119,34.9998656 C119,29.8000448 122.662607,26 127.321879,26 C130.044691,26 131.77675,26.9002017 132.766659,28.3991934 L132.766659,26.3847636 L138,26.3847636 L138,43.5383374 L132.766659,43.5383374 L132.766659,41.5994622 C131.77675,43.0995295 130.044691,44 127.321879,44 C122.662607,44 119,40.1994174 119,34.9998656" id="Fill-1" fill="#FFFFFF"></path>
                                        <path d="M143,41.0001492 C143,39.3427137 144.342847,38 145.999851,38 C147.656854,38 149,39.3427137 149,41.0001492 C149,42.6563914 147.656854,44 145.999851,44 C144.342847,44 143,42.6563914 143,41.0001492" id="Fill-3" fill="#DF4F4E"></path>
                                        <path d="M31.6673602,35.6071436 C31.6673602,32.6181142 29.9587662,30.6970873 27.3177815,30.6970873 C24.6781889,30.6970873 23.0731629,32.6181142 23.0731629,35.6071436 C23.0731629,38.5964601 24.6781889,40.5172 27.3177815,40.5172 C29.9587662,40.5172 31.6673602,38.5964601 31.6673602,35.6071436 L31.6673602,35.6071436 Z M18,26.4107261 L23.1767309,26.4107261 L23.1767309,28.5610822 C24.1600703,26.960944 25.9722324,26 28.6644443,26 C33.2729431,26 37,30.056458 37,35.6071436 C37,41.1575423 33.2729431,45.2145743 28.6644443,45.2145743 C25.9722324,45.2145743 24.1600703,44.2533433 23.1767309,42.652057 L23.1767309,53 L18,53 L18,26.4107261 Z" id="Fill-5" fill="#DF4F4E"></path>
                                        <path d="M63.5103846,33.1550994 C63.1473915,31.5365817 61.8482731,30.1584114 59.6135882,30.1584114 C57.483414,30.1584114 55.9766713,31.2669631 55.4571916,33.1550994 L63.5103846,33.1550994 Z M60.0299544,39.7833144 C62.3163357,39.7833144 63.6668712,38.9473354 64.6541341,38.148147 L67.7724096,41.150743 C66.1614357,42.7982634 63.8230784,44 60.1330679,44 C53.950449,44 50,40.2060035 50,35.0128901 C50,29.8195083 54.2097697,26 59.6135882,26 C65.8498596,26 69.3825452,30.7269201 68.9670173,36.6625589 L55.4054951,36.6625589 C55.924416,38.5512323 57.4311586,39.7833144 60.0299544,39.7833144 L60.0299544,39.7833144 Z" id="Fill-7" fill="#FFFFFF"></path>
                                        <path d="M84.898197,34.4215887 C84.898197,31.4415876 83.2965037,29.5263632 80.6618363,29.5263632 C78.0268911,29.5263632 76.321567,31.4415876 76.321567,34.4215887 C76.321567,37.4018759 78.0268911,39.3168142 80.6618363,39.3168142 C83.2965037,39.3168142 84.898197,37.4018759 84.898197,34.4215887 M71,34.4215887 C71,28.8876689 74.7418223,24.8434635 79.3393627,24.8434635 C82.0257066,24.8434635 83.8596663,25.801505 84.8365186,27.3968099 L84.8365186,17 L90,17 L90,43.5086747 L84.8365186,43.5086747 L84.8365186,41.4452228 C83.8596663,43.0416724 82.0257066,44 79.3393627,44 C74.7418223,44 71,39.9552223 71,34.4215887" id="Fill-9" fill="#FFFFFF"></path>
                                        <mask id="mask-2" fill="white">
                                            <use xlink:href="#path-1"></use>
                                        </mask>
                                        <g id="Clip-12"></g>
                                        <polygon id="Fill-11" fill="#FFFFFF" mask="url(#mask-2)" points="93 44 98 44 98 26 93 26"></polygon>
                                        <path d="M110.301247,26 C113.866359,26 116.088789,27.2002689 117.689894,29.0001344 L114.279557,32.0500112 C113.400922,31.0995295 112.057961,30.350168 110.456578,30.350168 C107.87208,30.350168 106.32266,32.4000896 106.32266,34.9998656 C106.32266,37.5996415 107.87208,39.6501008 110.559113,39.6501008 C112.522565,39.6501008 113.762713,38.6996191 114.589385,37.8505041 L118,40.8490253 C116.294693,42.7502577 114.12367,44 110.403782,44 C105.03055,44 101,40.1994174 101,34.9998656 C101,29.8000448 105.03055,26 110.301247,26 Z" id="Fill-13" fill="#FFFFFF" mask="url(#mask-2)"></path>
                                        <path d="M43.7300315,29.1717613 L43.7300315,26.448707 L39,26.448707 L39,44 L43.7300315,44 L43.7300315,35.719967 C43.7300315,32.087944 45.3258992,30.6045424 47.7269646,30.6045424 C48.1434183,30.6045424 48.5951145,30.655438 49,30.7467751 L49,29.5084979 L49,26.0035765 C49,26.0027511 48.8046864,26 48.7777838,26 C46.9771865,26 45.3514568,26.7678364 43.7300315,29.1717613 Z" id="Fill-14" fill="#FFFFFF" mask="url(#mask-2)"></path>
                                    </g>
                                </g>
                            </g>
                        </g>
                    </g>
                </svg>