<?xml version="1.0" standalone="no"?>
<!DOCTYPE svg PUBLIC "-//W3C//DTD SVG 20010904//EN"
 "http://www.w3.org/TR/2001/REC-SVG-20010904/DTD/svg10.dtd">
<svg version="1.0" xmlns="http://www.w3.org/2000/svg"
 width="200.000000pt" height="200.000000pt" viewBox="0 0 200.000000 200.000000"
 preserveAspectRatio="xMidYMid meet">
<metadata>
Created by potrace 1.11, written by Peter Selinger 2001-2013
</metadata>
<g transform="translate(0.000000,200.000000) scale(0.100000,-0.100000)"
fill="#000000" stroke="none">
<path d="M758 1639 c-70 -10 -111 -30 -160 -77 l-38 -36 0 52 0 52 -125 0
-125 0 0 -635 0 -635 125 0 125 0 0 240 c0 132 2 240 4 240 2 0 18 -13 35 -29
42 -39 91 -61 166 -73 287 -48 525 235 462 546 -51 249 -236 389 -469 355z
m97 -238 c80 -36 120 -110 119 -221 0 -79 -35 -152 -90 -190 -43 -29 -141 -39
-197 -21 -45 15 -103 78 -116 128 -14 48 -14 137 -1 185 23 81 103 138 195
138 28 0 68 -9 90 -19z"/>
<path d="M1515 996 c-54 -24 -85 -71 -85 -128 0 -45 4 -54 38 -88 68 -68 157
-60 209 19 71 106 -47 249 -162 197z"/>
</g>
</svg>
